<?xml version="1.0" encoding="utf-8"?>
<svg version="1.1" xmlns:xlink="http://www.w3.org/1999/xlink" width="30px" height="30px" xmlns="http://www.w3.org/2000/svg">
  <defs>
    <mask fill="white" id="clip9">
      <path d="M 28.6953125 16.7365056818182  C 29.5651041666667 18.2208806818182  30 19.9147727272727  30 21.8181818181819  C 30 24.0767045454545  29.4140625 26.0049715909091  28.2421875 27.6029829545455  C 27.0703125 29.2009943181819  25.65625 30  24 30  L 6.99999999999998 30  C 5.07291666666665 30  3.4244791666667 29.0660511363636  2.05468749999998 27.1981534090909  C 0.684895833333326 25.3302556818182  0 23.0823863636364  0 20.4545454545455  C 0 18.6079545454546  0.364583333333348 16.9034090909091  1.09374999999998 15.3409090909091  C 1.82291666666667 13.7784090909091  2.80208333333335 12.6065340909091  4.03125 11.8252840909091  C 4.0104166666667 11.3991477272727  3.99999999999998 11.09375  3.99999999999998 10.9090909090909  C 3.99999999999998 7.89772727272723  4.78125 5.32670454545453  6.34374999999998 3.19602272727274  C 6.80260278209623 2.5703143880506  7.28930376534352 2.03648061274297  7.80385294974176 1.59452140134983  C 9.04146291527663 0.531507133783309  10.4401785986961 0  12 0  C 13.625 0  15.1119791666667 0.617897727272736  16.4609375 1.85369318181821  C 17.8098958333333 3.08948863636368  18.7916666666667 4.73011363636368  19.40625 6.77556818181821  C 20.1458333333334 5.89488636363638  21.0104166666667 5.45454545454547  22 5.45454545454547  C 23.1041666666667 5.45454545454547  24.046875 5.98721590909094  24.828125 7.05255681818179  C 25.609375 8.11789772727274  26 9.40340909090909  26 10.9090909090909  C 26 11.9886363636364  25.7864583333333 12.96875  25.359375 13.8494318181818  C 26.7135416666667 14.2897727272727  27.8255208333333 15.2521306818181  28.6953125 16.7365056818182  Z " fill-rule="evenodd" />
    </mask>
  </defs>
  <g transform="matrix(1 0 0 1 -529 -952 )">
    <path d="M 28.6953125 16.7365056818182  C 29.5651041666667 18.2208806818182  30 19.9147727272727  30 21.8181818181819  C 30 24.0767045454545  29.4140625 26.0049715909091  28.2421875 27.6029829545455  C 27.0703125 29.2009943181819  25.65625 30  24 30  L 6.99999999999998 30  C 5.07291666666665 30  3.4244791666667 29.0660511363636  2.05468749999998 27.1981534090909  C 0.684895833333326 25.3302556818182  0 23.0823863636364  0 20.4545454545455  C 0 18.6079545454546  0.364583333333348 16.9034090909091  1.09374999999998 15.3409090909091  C 1.82291666666667 13.7784090909091  2.80208333333335 12.6065340909091  4.03125 11.8252840909091  C 4.0104166666667 11.3991477272727  3.99999999999998 11.09375  3.99999999999998 10.9090909090909  C 3.99999999999998 7.89772727272723  4.78125 5.32670454545453  6.34374999999998 3.19602272727274  C 6.80260278209623 2.5703143880506  7.28930376534352 2.03648061274297  7.80385294974176 1.59452140134983  C 9.04146291527663 0.531507133783309  10.4401785986961 0  12 0  C 13.625 0  15.1119791666667 0.617897727272736  16.4609375 1.85369318181821  C 17.8098958333333 3.08948863636368  18.7916666666667 4.73011363636368  19.40625 6.77556818181821  C 20.1458333333334 5.89488636363638  21.0104166666667 5.45454545454547  22 5.45454545454547  C 23.1041666666667 5.45454545454547  24.046875 5.98721590909094  24.828125 7.05255681818179  C 25.609375 8.11789772727274  26 9.40340909090909  26 10.9090909090909  C 26 11.9886363636364  25.7864583333333 12.96875  25.359375 13.8494318181818  C 26.7135416666667 14.2897727272727  27.8255208333333 15.2521306818181  28.6953125 16.7365056818182  Z " fill-rule="nonzero" fill="#ffffff" stroke="none" transform="matrix(1 0 0 1 529 952 )" />
    <path d="M 28.6953125 16.7365056818182  C 29.5651041666667 18.2208806818182  30 19.9147727272727  30 21.8181818181819  C 30 24.0767045454545  29.4140625 26.0049715909091  28.2421875 27.6029829545455  C 27.0703125 29.2009943181819  25.65625 30  24 30  L 6.99999999999998 30  C 5.07291666666665 30  3.4244791666667 29.0660511363636  2.05468749999998 27.1981534090909  C 0.684895833333326 25.3302556818182  0 23.0823863636364  0 20.4545454545455  C 0 18.6079545454546  0.364583333333348 16.9034090909091  1.09374999999998 15.3409090909091  C 1.82291666666667 13.7784090909091  2.80208333333335 12.6065340909091  4.03125 11.8252840909091  C 4.0104166666667 11.3991477272727  3.99999999999998 11.09375  3.99999999999998 10.9090909090909  C 3.99999999999998 7.89772727272723  4.78125 5.32670454545453  6.34374999999998 3.19602272727274  C 6.80260278209623 2.5703143880506  7.28930376534352 2.03648061274297  7.80385294974176 1.59452140134983  C 9.04146291527663 0.531507133783309  10.4401785986961 0  12 0  C 13.625 0  15.1119791666667 0.617897727272736  16.4609375 1.85369318181821  C 17.8098958333333 3.08948863636368  18.7916666666667 4.73011363636368  19.40625 6.77556818181821  C 20.1458333333334 5.89488636363638  21.0104166666667 5.45454545454547  22 5.45454545454547  C 23.1041666666667 5.45454545454547  24.046875 5.98721590909094  24.828125 7.05255681818179  C 25.609375 8.11789772727274  26 9.40340909090909  26 10.9090909090909  C 26 11.9886363636364  25.7864583333333 12.96875  25.359375 13.8494318181818  C 26.7135416666667 14.2897727272727  27.8255208333333 15.2521306818181  28.6953125 16.7365056818182  Z " stroke-width="4" stroke="#02a7f0" fill="none" transform="matrix(1 0 0 1 529 952 )" mask="url(#clip9)" />
  </g>
</svg>