<?xml version="1.0" encoding="utf-8"?>
<svg version="1.1" xmlns:xlink="http://www.w3.org/1999/xlink" width="26px" height="26px" xmlns="http://www.w3.org/2000/svg">
  <g transform="matrix(1 0 0 1 -923 -715 )">
    <path d="M 25.4583333333333 1.85714285714286  L 23.8333333333333 1.85714285714286  C 23.8333333333333 4.38169642857143  23.232421875 6.61365327380952  22.0305989583333 8.55301339285714  C 20.8287760416667 10.4923735119048  19.3250868055556 11.9747023809524  17.51953125 13  C 19.3250868055556 14.0252976190476  20.8287760416667 15.5076264880952  22.0305989583333 17.4469866071429  C 23.232421875 19.3863467261905  23.8333333333333 21.6183035714286  23.8333333333333 24.1428571428571  L 25.4583333333333 24.1428571428571  C 25.6163194444444 24.1428571428571  25.74609375 24.1863839285714  25.84765625 24.2734375  C 25.94921875 24.3604910714286  26 24.4717261904762  26 24.6071428571429  L 26 25.5357142857143  C 26 25.671130952381  25.94921875 25.7823660714286  25.84765625 25.8694196428571  C 25.74609375 25.9564732142857  25.6163194444444 26  25.4583333333333 26  L 0.541666666666667 26  C 0.383680555555556 26  0.25390625 25.9564732142857  0.15234375 25.8694196428571  C 0.05078125 25.7823660714286  0 25.671130952381  0 25.5357142857143  L 0 24.6071428571429  C 0 24.4717261904762  0.05078125 24.3604910714286  0.15234375 24.2734375  C 0.25390625 24.1863839285714  0.383680555555556 24.1428571428571  0.541666666666667 24.1428571428571  L 2.16666666666667 24.1428571428571  C 2.16666666666667 21.6183035714286  2.767578125 19.3863467261905  3.96940104166667 17.4469866071429  C 5.17122395833333 15.5076264880952  6.67491319444444 14.0252976190476  8.48046875 13  C 6.67491319444444 11.9747023809524  5.17122395833333 10.4923735119048  3.96940104166667 8.55301339285714  C 2.767578125 6.61365327380952  2.16666666666667 4.38169642857143  2.16666666666667 1.85714285714286  L 0.541666666666667 1.85714285714286  C 0.383680555555556 1.85714285714286  0.25390625 1.81361607142857  0.15234375 1.7265625  C 0.05078125 1.63950892857143  0 1.52827380952381  0 1.39285714285714  L 0 0.464285714285716  C 0 0.328869047619045  0.05078125 0.217633928571428  0.15234375 0.130580357142856  C 0.25390625 0.0435267857142845  0.383680555555556 0  0.541666666666667 0  L 25.4583333333333 0  C 25.6163194444444 0  25.74609375 0.0435267857142845  25.84765625 0.130580357142856  C 25.94921875 0.217633928571428  26 0.328869047619045  26 0.464285714285716  L 26 1.39285714285714  C 26 1.52827380952381  25.94921875 1.63950892857143  25.84765625 1.7265625  C 25.74609375 1.81361607142857  25.6163194444444 1.85714285714286  25.4583333333333 1.85714285714286  Z M 20.2278645833333 7.42857142857143  C 21.1870659722222 5.70684523809524  21.6666666666667 3.84970238095238  21.6666666666667 2  L 4.33333333333333 2  C 4.33333333333333 3.84970238095238  4.81293402777778 5.70684523809524  5.77213541666667 7.42857142857143  L 20.2278645833333 7.42857142857143  Z M 5.29817708333333 19  L 20.7018229166667 19  C 20.0924479166667 18.1361607142857  19.271484375 16.9681919642857  18.2389322916667 15.99609375  C 17.2063802083333 15.0239955357143  16.1089409722222 14.3348214285714  14.9466145833333 13.9285714285714  L 11.0533854166667 13.9285714285714  C 9.89105902777778 14.3348214285714  8.79361979166667 15.0239955357143  7.76106770833333 15.99609375  C 6.728515625 16.9681919642857  5.90755208333333 18.1361607142857  5.29817708333333 19  Z " fill-rule="nonzero" fill="#000000" stroke="none" transform="matrix(1 0 0 1 923 715 )" />
  </g>
</svg>