<?xml version="1.0" encoding="utf-8"?>
<svg version="1.1" xmlns:xlink="http://www.w3.org/1999/xlink" width="53px" height="39px" xmlns="http://www.w3.org/2000/svg">
  <defs>
    <mask fill="white" id="clip6">
      <path d="M 50.6950520833334 21.7574573863636  C 52.2316840277777 23.6871448863636  53 25.8892045454545  53 28.3636363636363  C 53 31.2997159090909  51.96484375 33.8064630681818  49.89453125 35.8838778409091  C 47.82421875 37.9612926136363  45.3260416666666 39  42.4 39  L 12.3666666666666 39  C 8.96215277777775 39  6.0499131944445 37.7858664772727  3.62994791666663 35.3575994318182  C 1.20998263888888 32.9293323863636  0 30.0071022727273  0 26.5909090909091  C 0 24.1903409090909  0.644097222222249 21.9744318181818  1.93229166666663 19.9431818181818  C 3.22048611111112 17.9119318181818  4.95034722222225 16.3884943181818  7.121875 15.3728693181818  C 7.0850694444445 14.8188920454546  7.06666666666663 14.421875  7.06666666666663 14.1818181818182  C 7.06666666666663 10.2670454545455  8.446875 6.92471590909089  11.2072916666666 4.15482954545456  C 13.9677083333334 1.38494318181817  17.2986111111111 0  21.2 0  C 24.0708333333334 0  26.6978298611111 0.803267045454556  29.0809895833334 2.40980113636361  C 31.4641493055555 4.01633522727272  33.1986111111111 6.14914772727272  34.284375 8.80823863636361  C 35.5909722222222 7.6633522727273  37.1184027777777 7.09090909090911  38.8666666666666 7.09090909090911  C 40.8173611111111 7.09090909090911  42.4828125 7.78338068181817  43.8630208333334 9.16832386363639  C 45.2432291666666 10.5532670454546  45.9333333333334 12.2244318181818  45.9333333333334 14.1818181818182  C 45.9333333333334 15.5852272727273  45.5560763888889 16.859375  44.8015625 18.0042613636364  C 47.1939236111111 18.5767045454545  49.1584201388889 19.8277698863637  50.6950520833334 21.7574573863636  Z " fill-rule="evenodd" />
    </mask>
  </defs>
  <g transform="matrix(1 0 0 1 -1327 -569 )">
    <path d="M 50.6950520833334 21.7574573863636  C 52.2316840277777 23.6871448863636  53 25.8892045454545  53 28.3636363636363  C 53 31.2997159090909  51.96484375 33.8064630681818  49.89453125 35.8838778409091  C 47.82421875 37.9612926136363  45.3260416666666 39  42.4 39  L 12.3666666666666 39  C 8.96215277777775 39  6.0499131944445 37.7858664772727  3.62994791666663 35.3575994318182  C 1.20998263888888 32.9293323863636  0 30.0071022727273  0 26.5909090909091  C 0 24.1903409090909  0.644097222222249 21.9744318181818  1.93229166666663 19.9431818181818  C 3.22048611111112 17.9119318181818  4.95034722222225 16.3884943181818  7.121875 15.3728693181818  C 7.0850694444445 14.8188920454546  7.06666666666663 14.421875  7.06666666666663 14.1818181818182  C 7.06666666666663 10.2670454545455  8.446875 6.92471590909089  11.2072916666666 4.15482954545456  C 13.9677083333334 1.38494318181817  17.2986111111111 0  21.2 0  C 24.0708333333334 0  26.6978298611111 0.803267045454556  29.0809895833334 2.40980113636361  C 31.4641493055555 4.01633522727272  33.1986111111111 6.14914772727272  34.284375 8.80823863636361  C 35.5909722222222 7.6633522727273  37.1184027777777 7.09090909090911  38.8666666666666 7.09090909090911  C 40.8173611111111 7.09090909090911  42.4828125 7.78338068181817  43.8630208333334 9.16832386363639  C 45.2432291666666 10.5532670454546  45.9333333333334 12.2244318181818  45.9333333333334 14.1818181818182  C 45.9333333333334 15.5852272727273  45.5560763888889 16.859375  44.8015625 18.0042613636364  C 47.1939236111111 18.5767045454545  49.1584201388889 19.8277698863637  50.6950520833334 21.7574573863636  Z " fill-rule="nonzero" fill="#000000" stroke="none" fill-opacity="0" transform="matrix(1 0 0 1 1327 569 )" />
    <path d="M 50.6950520833334 21.7574573863636  C 52.2316840277777 23.6871448863636  53 25.8892045454545  53 28.3636363636363  C 53 31.2997159090909  51.96484375 33.8064630681818  49.89453125 35.8838778409091  C 47.82421875 37.9612926136363  45.3260416666666 39  42.4 39  L 12.3666666666666 39  C 8.96215277777775 39  6.0499131944445 37.7858664772727  3.62994791666663 35.3575994318182  C 1.20998263888888 32.9293323863636  0 30.0071022727273  0 26.5909090909091  C 0 24.1903409090909  0.644097222222249 21.9744318181818  1.93229166666663 19.9431818181818  C 3.22048611111112 17.9119318181818  4.95034722222225 16.3884943181818  7.121875 15.3728693181818  C 7.0850694444445 14.8188920454546  7.06666666666663 14.421875  7.06666666666663 14.1818181818182  C 7.06666666666663 10.2670454545455  8.446875 6.92471590909089  11.2072916666666 4.15482954545456  C 13.9677083333334 1.38494318181817  17.2986111111111 0  21.2 0  C 24.0708333333334 0  26.6978298611111 0.803267045454556  29.0809895833334 2.40980113636361  C 31.4641493055555 4.01633522727272  33.1986111111111 6.14914772727272  34.284375 8.80823863636361  C 35.5909722222222 7.6633522727273  37.1184027777777 7.09090909090911  38.8666666666666 7.09090909090911  C 40.8173611111111 7.09090909090911  42.4828125 7.78338068181817  43.8630208333334 9.16832386363639  C 45.2432291666666 10.5532670454546  45.9333333333334 12.2244318181818  45.9333333333334 14.1818181818182  C 45.9333333333334 15.5852272727273  45.5560763888889 16.859375  44.8015625 18.0042613636364  C 47.1939236111111 18.5767045454545  49.1584201388889 19.8277698863637  50.6950520833334 21.7574573863636  Z " stroke-width="6" stroke="#aaaaaa" fill="none" transform="matrix(1 0 0 1 1327 569 )" mask="url(#clip6)" />
  </g>
</svg>